<?xml version="1.0" encoding="UTF-8"?>
<svg version="1.1" xmlns="http://www.w3.org/2000/svg" width="1536" height="1024">
<path d="M0 0 C506.88 0 1013.76 0 1536 0 C1536 337.92 1536 675.84 1536 1024 C1029.12 1024 522.24 1024 0 1024 C0 686.08 0 348.16 0 0 Z " fill="#050505" transform="translate(0,0)"/>
<path d="M0 0 C19.490625 -0.103125 38.98125 -0.20625 59.0625 -0.3125 C65.17015869 -0.35802002 71.27781738 -0.40354004 77.57055664 -0.45043945 C85.14733887 -0.47302246 85.14733887 -0.47302246 88.7172699 -0.47721863 C91.16047243 -0.48479404 93.60365874 -0.50216056 96.04673767 -0.52787781 C133.29154881 -0.89963626 163.62774101 8.27614227 190.49609375 34.4296875 C212.01368143 57.17791711 220.92491143 87.11811237 220.2890625 117.85546875 C219.9862589 126.08332951 218.83292883 133.98345415 217 142 C216.74476563 143.17046875 216.48953125 144.3409375 216.2265625 145.546875 C209.10038765 173.9208189 190.22639928 198.41099824 165.8125 214.125 C147.26145477 225.14585764 126.65459282 231.3744708 105.01098633 231.22705078 C103.84993472 231.22729185 102.68888311 231.22753292 101.49264812 231.2277813 C97.77236174 231.22630068 94.05228131 231.21112565 90.33203125 231.1953125 C88.01997982 231.19236818 85.70792706 231.19033014 83.39587402 231.18920898 C74.86806222 231.17876671 66.34027904 231.15084418 57.8125 231.125 C38.734375 231.08375 19.65625 231.0425 0 231 C0 154.77 0 78.54 0 0 Z " fill="#FDFDFD" transform="translate(344,369)"/>
<path d="M0 0 C20.295 -0.12375 20.295 -0.12375 41 -0.25 C45.23972656 -0.28641602 49.47945313 -0.32283203 53.84765625 -0.36035156 C59.10742188 -0.37841797 59.10742188 -0.37841797 61.58569336 -0.3817749 C63.28169988 -0.38783505 64.97769144 -0.40172795 66.67358398 -0.42230225 C90.12509421 -0.69207821 111.23685714 5.37103137 128.8125 21.72265625 C146.32903966 39.95862522 151.67783832 60.81909166 151.3359375 85.48046875 C150.56825416 107.23889852 140.0305279 129.05000466 124.3125 144.03125 C88.50663216 174.51462397 46.65846443 165 0 165 C0 110.55 0 56.1 0 0 Z " fill="#060606" transform="translate(379,402)"/>
<path d="M0 0 C81.34305105 0 81.34305105 0 99.00878906 16.74243164 C111.26908312 29.04242331 116.12779178 45.75749158 116.3125 62.6875 C116.19739653 81.30333825 111.52375598 98.37511569 98.21484375 111.95703125 C71.32277996 136.76223295 35.25024812 129 0 129 C0 86.43 0 43.86 0 0 Z " fill="#FDFDFD" transform="translate(621,403)"/>
<path d="M0 0 C29.04 0 58.08 0 88 0 C88 7.59 88 15.18 88 23 C67.87 23 47.74 23 27 23 C27 32.9 27 42.8 27 53 C44.82 53 62.64 53 81 53 C81 60.92 81 68.84 81 77 C63.18 77 45.36 77 27 77 C27 86.9 27 96.8 27 107 C47.13 107 67.26 107 88 107 C88 114.59 88 122.18 88 130 C58.96 130 29.92 130 0 130 C0 87.1 0 44.2 0 0 Z " fill="#FCFCFC" transform="translate(1033,402)"/>
<path d="M0 0 C9.76414542 8.1564538 13.77087958 17.00579651 17.3984375 29.09765625 C17.3984375 36.02765625 17.3984375 42.95765625 17.3984375 50.09765625 C-5.7015625 50.09765625 -28.8015625 50.09765625 -52.6015625 50.09765625 C-49.62196411 60.02965089 -47.87157359 65.14324827 -39.6015625 71.09765625 C-33.50304981 74.14691259 -25.80553938 73.98125073 -19.22265625 72.59765625 C-12.46390563 70.34046439 -8.81094461 65.55426269 -4.6015625 60.09765625 C2.40741439 61.82697391 8.90131941 63.93732967 15.3984375 67.09765625 C13.2818917 76.2693547 6.64412535 82.59192343 -0.98046875 87.59375 C-14.25653757 95.21116654 -30.36860534 96.31532289 -45.1015625 92.53515625 C-51.48402993 90.43964093 -56.48220863 87.40675268 -61.6015625 83.09765625 C-62.23578125 82.5975 -62.87 82.09734375 -63.5234375 81.58203125 C-72.52840486 73.69272356 -77.94351299 59.65229986 -78.84375 47.94921875 C-79.2189747 30.39704099 -74.7641659 15.72219617 -62.5390625 2.94140625 C-57.1573099 -2.20969981 -51.56807353 -5.33025373 -44.6015625 -7.90234375 C-43.93511719 -8.14855469 -43.26867187 -8.39476562 -42.58203125 -8.6484375 C-28.07271731 -13.07759649 -11.95427212 -8.74133712 0 0 Z " fill="#FDFDFD" transform="translate(827.6015625,440.90234375)"/>
<path d="M0 0 C26.40035345 -2.07103245 26.40035345 -2.07103245 31.4765625 2.109375 C33.33186416 4.68039228 34.77164844 7.17313311 36.05566406 10.06884766 C37.91567657 13.87254438 40.50394829 17.23508059 42.9375 20.6875 C43.64918335 21.74807617 43.64918335 21.74807617 44.37524414 22.83007812 C46.64500773 26.48252594 46.64500773 26.48252594 50 29 C50.33257813 27.98679687 50.33257813 27.98679687 50.671875 26.953125 C52.38686407 23.13979636 54.72951558 20.06784947 57.25 16.75 C58.19480389 15.49636825 59.13749406 14.24114085 60.078125 12.984375 C60.56780762 12.35136475 61.05749023 11.71835449 61.56201172 11.06616211 C63.07883992 9.00264414 63.07883992 9.00264414 64.19189453 6.52954102 C65.57660053 3.82486229 66.70064885 2.0008989 69 0 C73.83114235 -1.11107136 78.45092973 -0.85142489 83.375 -0.5625 C84.68339844 -0.52189453 85.99179688 -0.48128906 87.33984375 -0.43945312 C90.56368674 -0.33356047 93.77993742 -0.18580949 97 0 C95.53225941 3.84212093 93.86375929 6.77555297 91.375 10.0625 C87.8790468 14.77171782 84.5812417 19.56376769 81.3671875 24.46875 C79.49210673 27.3023546 77.53903233 30.07446745 75.5703125 32.84375 C74.67252075 34.11895508 74.67252075 34.11895508 73.7565918 35.41992188 C72.55718792 37.12107611 71.34789711 38.81530838 70.12817383 40.50195312 C69.5792749 41.28505859 69.03037598 42.06816406 68.46484375 42.875 C67.965896 43.57367188 67.46694824 44.27234375 66.95288086 44.9921875 C65.80127918 46.95415142 65.80127918 46.95415142 66.265625 49.11987305 C67.23756929 51.60821846 68.55479731 53.60230726 70.0625 55.8125 C70.7740625 56.85921875 71.485625 57.9059375 72.21875 58.984375 C74.41715044 62.16838049 76.6305291 65.3419092 78.84375 68.515625 C79.535896 69.50844482 80.22804199 70.50126465 80.94116211 71.52416992 C82.32451774 73.50550964 83.71062011 75.48493529 85.09985352 77.4621582 C98 95.89251535 98 95.89251535 98 98 C71.64238533 100.06767972 71.64238533 100.06767972 66.55859375 95.9609375 C64.70178731 93.40298404 63.28213551 90.91570544 62.00048828 88.03027344 C59.93477239 83.83835217 57.0821665 80.09160609 54.4375 76.25 C53.39038156 74.67462534 52.34706287 73.09671457 51.30859375 71.515625 C50.86314209 70.83790039 50.41769043 70.16017578 49.95874023 69.46191406 C49.64235596 68.97948242 49.32597168 68.49705078 49 68 C47.86420222 69.52231451 46.72990961 71.04576895 45.60205078 72.57397461 C44.60384415 73.91784122 43.59403523 75.25315531 42.57373047 76.58032227 C39.95068262 80.05343945 37.74850168 83.31252439 36.0625 87.3359375 C34.0713312 91.74642797 32.34457933 95.54521526 28 98 C18.53105425 99.86552364 8.54256378 98.9073532 -1 98 C0.64084826 93.63990026 2.87461732 90.24224273 5.6875 86.5625 C10.59243457 80.01283199 15.27016072 73.32619395 19.875 66.5625 C20.50494873 65.63961182 21.13489746 64.71672363 21.78393555 63.76586914 C25.30709218 58.57802217 28.71401915 53.34128066 32 48 C31.67016113 47.53553467 31.34032227 47.07106934 31.00048828 46.5925293 C23.21499597 35.60538949 15.60177647 24.51124781 8.125 13.3125 C7.71928772 12.70642914 7.31357544 12.10035828 6.89556885 11.47592163 C5.74281469 9.7526357 4.59343821 8.0271533 3.4453125 6.30078125 C2.78031738 5.30216064 2.11532227 4.30354004 1.43017578 3.2746582 C0 1 0 1 0 0 Z " fill="#FDFDFD" transform="translate(1134,434)"/>
<path d="M0 0 C41.89473684 0 41.89473684 0 53.02734375 11.00390625 C60.80334327 20.19372387 62.66626205 30.18138726 62.5 41.9375 C62.51546875 43.02740234 62.5309375 44.11730469 62.546875 45.24023438 C62.49610253 55.92149295 60.09471346 65.78349508 53.02734375 74.03125 C38.58102469 88.06004539 18.97070296 85 0 85 C0 56.95 0 28.9 0 0 Z " fill="#070707" transform="translate(647,425)"/>
<path d="M0 0 C8.91 0 17.82 0 27 0 C28.134375 3.20976562 29.26875 6.41953125 30.4375 9.7265625 C31.56601028 12.91756302 32.69485555 16.10844486 33.82373047 19.29931641 C34.59393537 21.47692768 35.36380503 23.65465757 36.13330078 25.83251953 C41.34549611 40.58337299 46.62460626 55.30779325 52 70 C54.42717941 67.57282059 54.98326488 65.63443733 56.10717773 62.39208984 C56.51777939 61.21681732 56.92838104 60.0415448 57.35142517 58.83065796 C57.79557244 57.5407825 58.23962627 56.25087486 58.68359375 54.9609375 C59.14384072 53.63756074 59.60462859 52.31437198 60.06593323 50.99136353 C61.28143432 47.50106827 62.49013005 44.00845472 63.69726562 40.51525879 C65.15621721 36.29695434 66.62244691 32.08117603 68.08828068 27.86525917 C69.23096405 24.57861432 70.3723701 21.29154772 71.5096283 18.00302124 C71.92338211 16.80883575 72.33713593 15.61465027 72.76342773 14.38427734 C73.12379623 13.34218109 73.48416473 12.30008484 73.85545349 11.22640991 C75.18909709 7.46694633 76.59936636 3.73502304 78 0 C86.91 0 95.82 0 105 0 C101.67066066 8.78173565 98.34017093 17.56302974 95.00799561 26.34368896 C94.30339506 28.20048099 93.59885045 30.05729424 92.89434814 31.91412354 C90.43261526 38.40241474 87.9700088 44.8903735 85.50650024 51.37799072 C84.67826286 53.55949394 83.85027439 55.74109167 83.02255249 57.92279053 C79.03127888 68.44236853 75.03487124 78.96008548 70.984375 89.45703125 C70.69443665 90.21376633 70.40449829 90.9705014 70.10577393 91.75016785 C68.11600453 96.88399547 68.11600453 96.88399547 67 98 C64.78144736 98.08783542 62.56011504 98.10694609 60.33984375 98.09765625 C59.34314415 98.09553383 59.34314415 98.09553383 58.3263092 98.09336853 C56.19666101 98.08775518 54.06711661 98.07520054 51.9375 98.0625 C50.49674631 98.05748671 49.05599097 98.05292351 47.61523438 98.04882812 C44.07678898 98.03778145 40.53840461 98.02050792 37 98 C36.60433838 96.95811523 36.20867676 95.91623047 35.80102539 94.84277344 C27.83601956 73.87507608 19.83410347 52.92209933 11.75 32 C11.38883087 31.06474487 11.02766174 30.12948975 10.6555481 29.16589355 C9.62010811 26.48529158 8.58376397 23.80504179 7.546875 21.125 C7.22883408 20.30243713 6.91079315 19.47987427 6.58311462 18.63238525 C4.64310432 13.62579459 2.66463581 8.6375415 0.60253906 3.6796875 C0 2 0 2 0 0 Z " fill="#FCFCFC" transform="translate(848,434)"/>
<path d="M0 0 C22.77 0 45.54 0 69 0 C69 10.56 69 21.12 69 32 C46.23 32 23.46 32 0 32 C0 21.44 0 10.88 0 0 Z " fill="#FBFBFB" transform="translate(418,503)"/>
<path d="M0 0 C22.44 0 44.88 0 68 0 C68 10.23 68 20.46 68 31 C45.56 31 23.12 31 0 31 C0 20.77 0 10.54 0 0 Z " fill="#FEFEFE" transform="translate(418,439)"/>
<path d="M0 0 C5.26792339 3.21491842 8.86446746 6.86487885 10.35546875 12.9375 C11.26237439 20.56505379 11.22452568 27.69147945 6.35546875 33.9375 C2.3242409 38.20255777 -0.88225543 40.58179392 -6.79296875 41.140625 C-13.37084103 41.27910652 -17.29593357 40.01300493 -22.33203125 35.5625 C-27.15575532 30.08692133 -29.04498959 25.54113448 -28.921875 18.22265625 C-28.22024601 12.44162869 -26.12424547 6.7918734 -21.64453125 2.9375 C-14.87773563 -1.57369708 -7.87334876 -3.16329522 0 0 Z " fill="#F8F8F8" transform="translate(696.64453125,573.0625)"/>
<path d="M0 0 C22.66666667 0 22.66666667 0 27.875 4.6875 C29.53864667 8.10721816 29.59671704 11.26669342 29 15 C27.5 17.5 27.5 17.5 26 19 C26.825 19.825 27.65 20.65 28.5 21.5 C30.60973705 24.0352806 31.39959316 25.75534985 31.5 29.0625 C30.99258769 33.05837194 30.5991039 34.96771212 28 38 C22.42600917 41.76425354 17.08074983 41.34867979 10.625 41.1875 C5.365625 41.0946875 5.365625 41.0946875 0 41 C0 27.47 0 13.94 0 0 Z " fill="#F9F9F9" transform="translate(845,572)"/>
<path d="M0 0 C17.49 0 34.98 0 53 0 C53 6.93 53 13.86 53 21 C35.51 21 18.02 21 0 21 C0 14.07 0 7.14 0 0 Z " fill="#FCFCFC" transform="translate(959,468)"/>
<path d="M0 0 C20 0 20 0 27 2 C30.18987984 5.35776825 31.90034851 7.67961779 32.25 12.3125 C31.91934727 17.18962781 30.57981391 19.61167868 26.9375 22.8125 C25 24 25 24 23 24 C23.6496875 25.05960938 24.299375 26.11921875 24.96875 27.2109375 C25.81273123 28.59881775 26.65646864 29.98684629 27.5 31.375 C28.14388672 32.42300781 28.14388672 32.42300781 28.80078125 33.4921875 C32 38.7734375 32 38.7734375 32 41 C29.03 41 26.06 41 23 41 C22.50371094 40.00097656 22.00742188 39.00195312 21.49609375 37.97265625 C20.81121711 36.66857607 20.12494534 35.36522792 19.4375 34.0625 C19.11458984 33.40314453 18.79167969 32.74378906 18.45898438 32.06445312 C17.33836317 29.86044622 17.33836317 29.86044622 15 27 C12.69 26.67 10.38 26.34 8 26 C8 30.95 8 35.9 8 41 C5.36 41 2.72 41 0 41 C0 27.47 0 13.94 0 0 Z " fill="#F8F8F8" transform="translate(1013,572)"/>
<path d="M0 0 C6.60043535 3.92458318 9.9776696 9.18305754 12.1796875 16.421875 C12.625 18.4375 12.625 18.4375 12.625 21.4375 C-2.555 21.4375 -17.735 21.4375 -33.375 21.4375 C-32.10460507 12.5447355 -30.17033548 7.40903156 -23.25390625 1.6640625 C-16.48277267 -2.75617855 -7.39669183 -3.32067283 0 0 Z " fill="#0F0F0E" transform="translate(808.375,453.5625)"/>
<path d="M0 0 C2.97 0 5.94 0 9 0 C11.14049056 5.51593791 13.276625 11.03353481 15.40869141 16.55273438 C16.13502612 18.4311302 16.86256149 20.30906221 17.59130859 22.18652344 C18.63693129 24.88095799 19.67826339 27.57701614 20.71875 30.2734375 C21.04685669 31.11619232 21.37496338 31.95894714 21.7130127 32.82723999 C22.01332397 33.60789825 22.31363525 34.38855652 22.62304688 35.19287109 C22.88952026 35.88126068 23.15599365 36.56965027 23.43054199 37.27890015 C24 39 24 39 24 41 C21.36 41 18.72 41 16 41 C14.68 38.03 13.36 35.06 12 32 C6.72 31.67 1.44 31.34 -4 31 C-4.99 34.3 -5.98 37.6 -7 41 C-9.64 41 -12.28 41 -15 41 C-10.23423073 27.24468162 -5.14803616 13.61633211 0 0 Z " fill="#F7F7F7" transform="translate(809,572)"/>
<path d="M0 0 C2.64 0 5.28 0 8 0 C9.98079847 5.03333884 11.95614136 10.0687717 13.92651367 15.10620117 C14.59722694 16.81869848 15.26941336 18.53061958 15.94311523 20.24194336 C16.91259727 22.70535786 17.8767195 25.17081275 18.83984375 27.63671875 C19.14091537 28.39836838 19.441987 29.16001801 19.75218201 29.94474792 C21.17875167 33.61213606 22.40144858 37.08743509 23 41 C20.36 41 17.72 41 15 41 C12 34.375 12 34.375 12 31 C6.72 31.33 1.44 31.66 -4 32 C-5.32 34.97 -6.64 37.94 -8 41 C-10.31 41 -12.62 41 -15 41 C-12.83194185 33.14973618 -10.04366045 25.56315008 -7.12890625 17.96533203 C-6.36615921 15.97695325 -5.60845379 13.9867081 -4.8515625 11.99609375 C-1.16946396 2.33892792 -1.16946396 2.33892792 0 0 Z " fill="#F7F7F7" transform="translate(1114,572)"/>
<path d="M0 0 C9.24 0 18.48 0 28 0 C28 2.31 28 4.62 28 7 C21.4 7 14.8 7 8 7 C8 10.3 8 13.6 8 17 C13.94 17 19.88 17 26 17 C26 19.31 26 21.62 26 24 C20.06 24 14.12 24 8 24 C8 27.3 8 30.6 8 34 C14.6 34 21.2 34 28 34 C28 36.31 28 38.62 28 41 C18.76 41 9.52 41 0 41 C0 27.47 0 13.94 0 0 Z " fill="#FAFAFA" transform="translate(1187,572)"/>
<path d="M0 0 C9.24 0 18.48 0 28 0 C28 2.31 28 4.62 28 7 C21.4 7 14.8 7 8 7 C8 10.3 8 13.6 8 17 C13.94 17 19.88 17 26 17 C26 19.31 26 21.62 26 24 C20.06 24 14.12 24 8 24 C8 27.3 8 30.6 8 34 C14.6 34 21.2 34 28 34 C28 36.31 28 38.62 28 41 C18.76 41 9.52 41 0 41 C0 27.47 0 13.94 0 0 Z " fill="#FBFBFB" transform="translate(1058,572)"/>
<path d="M0 0 C3.35004313 1.95112402 5.16552534 3.41289907 7.0078125 6.8671875 C7.2553125 7.95 7.2553125 7.95 7.5078125 9.0546875 C2.7578125 12.0546875 2.7578125 12.0546875 0.5078125 12.0546875 C-0.1934375 11.2296875 -0.8946875 10.4046875 -1.6171875 9.5546875 C-4.92724111 6.67638001 -6.3320827 6.35335279 -10.55859375 6.625 C-13.63439414 7.3085112 -15.36475409 8.79831873 -17.4921875 11.0546875 C-18.54555261 14.21478283 -18.69251638 16.6100011 -18.7421875 19.9296875 C-18.76796875 20.95835937 -18.79375 21.98703125 -18.8203125 23.046875 C-18.44162482 26.51817875 -17.62056822 28.30313224 -15.4921875 31.0546875 C-11.84537874 33.58055094 -8.85428679 33.17817192 -4.62109375 32.61328125 C-1.71315367 31.85028046 -0.2607844 30.43844853 1.5078125 28.0546875 C3.9828125 29.0446875 3.9828125 29.0446875 6.5078125 30.0546875 C6.5078125 34.0546875 6.5078125 34.0546875 5.1171875 35.72265625 C4.50359375 36.22410156 3.89 36.72554687 3.2578125 37.2421875 C2.65453125 37.75136719 2.05125 38.26054688 1.4296875 38.78515625 C-3.02507467 41.72783451 -8.32995715 41.53217128 -13.4921875 41.0546875 C-18.91356875 39.24756042 -22.33965682 35.70751892 -25.4921875 31.0546875 C-28.56148145 24.82214162 -28.70079328 17.20967819 -26.76953125 10.5703125 C-21.90421525 0.09117035 -10.83723912 -4.11067691 0 0 Z " fill="#F8F8F8" transform="translate(992.4921875,572.9453125)"/>
<path d="M0 0 C3.5 1.75 3.5 1.75 6 4 C6.78375 4.70125 7.5675 5.4025 8.375 6.125 C10 8 10 8 10 10 C5.61538462 13 5.61538462 13 3 13 C2.29875 12.175 1.5975 11.35 0.875 10.5 C-2.43621269 7.62068461 -3.83934358 7.30271425 -8.06640625 7.56640625 C-11.10618646 8.24805393 -12.86696044 9.80232287 -15 12 C-16.40053506 14.80107012 -16.2075504 17.18891681 -16.25 20.3125 C-16.27578125 21.44300781 -16.3015625 22.57351563 -16.328125 23.73828125 C-15.96360821 27.36175168 -15.23873288 29.15116198 -13 32 C-9.35319124 34.52586344 -6.36209929 34.12348442 -2.12890625 33.55859375 C0.77903383 32.79559296 2.2314031 31.38376103 4 29 C6.475 29.99 6.475 29.99 9 31 C9 32.32 9 33.64 9 35 C4.33549394 39.55602917 0.28736634 42.00805664 -6.3125 42.4375 C-12.75432516 42.28719075 -17.00568112 39.04680096 -21.375 34.5625 C-25.47450764 28.09789181 -25.79621048 21.49027639 -25 14 C-23.13404857 7.76671361 -19.75110026 4.26048837 -14.2109375 0.921875 C-9.72116693 -0.95018481 -4.76006373 -0.52322416 0 0 Z " fill="#F8F8F8" transform="translate(647,572)"/>
<path d="M0 0 C3.31177303 1.76482642 5.4876265 4.11499123 7.375 7.375 C8.81831107 13.43690649 8.18974155 17.8931271 5.1875 23.26171875 C3.37237158 25.91873239 2.07341868 26.97552711 -1 28 C-4.92003016 28.2856124 -8.48303 28.19854941 -11.65625 25.69140625 C-15.57453189 21.12387416 -16.35107876 17.07692 -16.28515625 11.28515625 C-15.73670475 6.89003121 -13.16323263 4.24632068 -10.25 1.125 C-6.84265312 -0.57867344 -3.66930853 -0.75503079 0 0 Z " fill="#090808" transform="translate(692,579)"/>
<path d="M0 0 C11.22 0 22.44 0 34 0 C34 2.31 34 4.62 34 7 C29.71 7 25.42 7 21 7 C21 18.22 21 29.44 21 41 C18.36 41 15.72 41 13 41 C13 29.78 13 18.56 13 7 C8.71 7 4.42 7 0 7 C0 4.69 0 2.38 0 0 Z " fill="#FBFBFB" transform="translate(1141,572)"/>
<path d="M0 0 C2.64 0 5.28 0 8 0 C8 11.22 8 22.44 8 34 C13.94 34 19.88 34 26 34 C26 36.31 26 38.62 26 41 C17.42 41 8.84 41 0 41 C0 27.47 0 13.94 0 0 Z " fill="#F9F8F8" transform="translate(720,572)"/>
<path d="M0 0 C2.31 0 4.62 0 7 0 C7 11.22 7 22.44 7 34 C13.27 34 19.54 34 26 34 C26 36.31 26 38.62 26 41 C17.42 41 8.84 41 0 41 C0 27.47 0 13.94 0 0 Z " fill="#FCFDFD" transform="translate(758,572)"/>
<path d="M0 0 C1.98 0 3.96 0 6 0 C6 18.15 6 36.3 6 55 C4.02 55 2.04 55 0 55 C0 36.85 0 18.7 0 0 Z " fill="#FCFCFC" transform="translate(917,565)"/>
<path d="M0 0 C1.8975 -0.061875 3.795 -0.12375 5.75 -0.1875 C7.35101562 -0.23970703 7.35101562 -0.23970703 8.984375 -0.29296875 C12.30027855 0.02917214 13.59016673 0.77148914 16 3 C15.75 6.375 15.75 6.375 15 10 C10.59077836 13.18443785 5.17195206 12.12314172 0 12 C0 8.04 0 4.08 0 0 Z " fill="#060606" transform="translate(1021,579)"/>
<path d="M0 0 C1.93719378 -0.05406122 3.87481921 -0.09282025 5.8125 -0.125 C6.89144531 -0.14820313 7.97039063 -0.17140625 9.08203125 -0.1953125 C12 0 12 0 15 2 C15.375 5.5 15.375 5.5 15 9 C11.47320901 11.35119399 9.97120515 11.21443452 5.8125 11.125 C4.72582031 11.10695313 3.63914062 11.08890625 2.51953125 11.0703125 C1.27236328 11.03550781 1.27236328 11.03550781 0 11 C0 7.37 0 3.74 0 0 Z " fill="#050505" transform="translate(853,595)"/>
<path d="M0 0 C27 0 27 0 30 2 C20.76 2 11.52 2 2 2 C1.67 29.39 1.34 56.78 1 85 C0.67 85 0.34 85 0 85 C0 56.95 0 28.9 0 0 Z " fill="#2C2C2C" transform="translate(647,425)"/>
<path d="M0 0 C1.58246707 -0.08153933 3.16616273 -0.13943557 4.75 -0.1875 C6.07257812 -0.23970703 6.07257812 -0.23970703 7.421875 -0.29296875 C10.44671583 0.05076316 11.75583602 1.00227459 14 3 C13.125 7.875 13.125 7.875 12 9 C9.98035801 9.07244053 7.95832876 9.08377188 5.9375 9.0625 C4.83277344 9.05347656 3.72804688 9.04445313 2.58984375 9.03515625 C1.30787109 9.01775391 1.30787109 9.01775391 0 9 C0 6.03 0 3.06 0 0 Z " fill="#090808" transform="translate(853,579)"/>
<path d="M0 0 C1.90389849 2.85584773 2.69462177 4.9311762 3.625 8.1875 C3.88539063 9.08855469 4.14578125 9.98960937 4.4140625 10.91796875 C4.60742188 11.60503906 4.80078125 12.29210937 5 13 C1.7 13 -1.6 13 -5 13 C-4.35780498 11.01964979 -3.71114356 9.04074744 -3.0625 7.0625 C-2.70285156 5.96035156 -2.34320312 4.85820313 -1.97265625 3.72265625 C-1 1 -1 1 0 0 Z " fill="#090808" transform="translate(813,582)"/>
<path d="M0 0 C2.05123248 2.05123248 2.64147118 3.27005063 3.625 5.9375 C3.88539062 6.62714844 4.14578125 7.31679688 4.4140625 8.02734375 C5 10 5 10 5 13 C2.03 13 -0.94 13 -4 13 C-3.52140759 11.39566191 -3.04210442 9.79153584 -2.5625 8.1875 C-2.29566406 7.29417969 -2.02882813 6.40085937 -1.75390625 5.48046875 C-1.19612127 3.64526945 -0.60655425 1.81966274 0 0 Z " fill="#0A0B0A" transform="translate(1117,582)"/>
<path d="M0 0 C0.66 0 1.32 0 2 0 C2 0.66 2 1.32 2 2 C1.34 2 0.68 2 0 2 C0.309375 2.86625 0.309375 2.86625 0.625 3.75 C1.08661261 6.51967567 0.42944945 7.64561267 -1 10 C-1.66 10 -2.32 10 -3 10 C-3.66 11.65 -4.32 13.3 -5 15 C-5.33 14.34 -5.66 13.68 -6 13 C-5.10333658 10.75689987 -4.10853317 8.55245679 -3.0625 6.375 C-2.49660156 5.18648438 -1.93070313 3.99796875 -1.34765625 2.7734375 C-0.90292969 1.85820312 -0.45820312 0.94296875 0 0 Z " fill="#0F0F0F" transform="translate(735,487)"/>
<path d="M0 0 C0.99 0.33 1.98 0.66 3 1 C3.33 2.98 3.66 4.96 4 7 C6.97 7.495 6.97 7.495 10 8 C9.01 9.485 9.01 9.485 8 11 C3.98232708 8.93687066 1.94736847 7.09972309 0 3 C0 2.01 0 1.02 0 0 Z " fill="#0F0E0E" transform="translate(630,596)"/>
<path d="M0 0 C0.33 0.99 0.66 1.98 1 3 C2.32 3 3.64 3 5 3 C5 2.01 5 1.02 5 0 C5.66 0 6.32 0 7 0 C7.33 1.65 7.66 3.3 8 5 C5.03 5 2.06 5 -1 5 C-0.67 3.35 -0.34 1.7 0 0 Z " fill="#101010" transform="translate(1114,590)"/>
<path d="M0 0 C4.29 0.99 8.58 1.98 13 3 C8.73423502 5.13288249 8.26681369 5.24882352 4 4 C2.3207762 3.36562656 0.64991582 2.70710678 -1 2 C-0.67 1.34 -0.34 0.68 0 0 Z " fill="#151414" transform="translate(777,531)"/>
<path d="M0 0 C0.66 0.33 1.32 0.66 2 1 C1.5205537 5.21912747 0.83374881 7.79663178 -2 11 C-3.01956907 5.78886919 -2.95530069 4.43295104 0 0 Z " fill="#0D0D0D" transform="translate(902,495)"/>
<path d="M0 0 C2.23708645 4.15458912 4 8.23876933 4 13 C3.34 13 2.68 13 2 13 C1.46605821 11.5882217 0.94834896 10.17029756 0.4375 8.75 C0.14746094 7.96109375 -0.14257812 7.1721875 -0.44140625 6.359375 C-1.04522837 3.80896548 -0.8473932 2.44677771 0 0 Z " fill="#0C0D0C" transform="translate(890,472)"/>
<path d="M0 0 C0.66 0 1.32 0 2 0 C2.33 1.32 2.66 2.64 3 4 C3.66 4 4.32 4 5 4 C5.66 6.31 6.32 8.62 7 11 C6.01 11 5.02 11 4 11 C3.32880451 9.5437455 2.66318193 8.08492133 2 6.625 C1.62875 5.81289063 1.2575 5.00078125 0.875 4.1640625 C0 2 0 2 0 0 Z " fill="#121212" transform="translate(729,432)"/>
<path d="M0 0 C2.95183101 2.95183101 3.08663988 5.95511947 4 10 C3.01 10 2.02 10 1 10 C0.63883954 8.5225254 0.28624952 7.04295325 -0.0625 5.5625 C-0.25972656 4.73878906 -0.45695313 3.91507812 -0.66015625 3.06640625 C-0.82837891 2.04353516 -0.82837891 2.04353516 -1 1 C-0.67 0.67 -0.34 0.34 0 0 Z " fill="#0E0E0E" transform="translate(878,438)"/>
<path d="M0 0 C3.3125 0.25 3.3125 0.25 7 1 C7.99 2.32 8.98 3.64 10 5 C6.7 4.01 3.4 3.02 0 2 C0 1.34 0 0.68 0 0 Z " fill="#0C0C0C" transform="translate(831,502)"/>
<path d="M0 0 C1.4540625 0.0309375 1.4540625 0.0309375 2.9375 0.0625 C2.9375 0.7225 2.9375 1.3825 2.9375 2.0625 C4.2575 2.3925 5.5775 2.7225 6.9375 3.0625 C5.47957116 3.11649736 4.02107288 3.15529177 2.5625 3.1875 C1.75039063 3.21070313 0.93828125 3.23390625 0.1015625 3.2578125 C-2.0625 3.0625 -2.0625 3.0625 -4.0625 1.0625 C-3.0625 0.0625 -3.0625 0.0625 0 0 Z " fill="#121212" transform="translate(685.0625,400.9375)"/>
<path d="M0 0 C0.66 0 1.32 0 2 0 C3.5078125 2.1875 3.5078125 2.1875 5.125 5 C5.66382813 5.928125 6.20265625 6.85625 6.7578125 7.8125 C7.37269531 8.8953125 7.37269531 8.8953125 8 10 C6.10546875 9.6796875 6.10546875 9.6796875 4 9 C2.26918256 6.05119992 1.08011848 3.24035543 0 0 Z " fill="#0D0D0D" transform="translate(1191,515)"/>
<path d="M0 0 C0.66 0.33 1.32 0.66 2 1 C1.5020163 4.73487777 1.12508244 6.81237635 -1 10 C-1.66 10 -2.32 10 -3 10 C-2.01 6.7 -1.02 3.4 0 0 Z " fill="#111110" transform="translate(921,515)"/>
<path d="M0 0 C2.64 0 5.28 0 8 0 C8 0.66 8 1.32 8 2 C3.545 2.495 3.545 2.495 -1 3 C-0.67 2.01 -0.34 1.02 0 0 Z " fill="#0C0C0B" transform="translate(982,604)"/>
<path d="M0 0 C0.66 0.33 1.32 0.66 2 1 C1.01 3.97 0.02 6.94 -1 10 C-1.66 10 -2.32 10 -3 10 C-2.67 7.36 -2.34 4.72 -2 2 C-1.34 2 -0.68 2 0 2 C0 1.34 0 0.68 0 0 Z " fill="#100F0F" transform="translate(921,444)"/>
<path d="M0 0 C0.66 0.33 1.32 0.66 2 1 C0.515 4.96 0.515 4.96 -1 9 C-1.66 9 -2.32 9 -3 9 C-2.4140625 2.84765625 -2.4140625 2.84765625 -2 1 C-1.34 0.67 -0.68 0.34 0 0 Z " fill="#0E0E0E" transform="translate(803,585)"/>
<path d="M0 0 C1.74627478 2.61941217 2.38722388 4.03824877 3 7 C2.01 7.33 1.02 7.66 0 8 C-1.125 6.25 -1.125 6.25 -2 4 C-1.125 1.75 -1.125 1.75 0 0 Z " fill="#1C1B1C" transform="translate(813,582)"/>
<path d="M0 0 C0.99 0.495 0.99 0.495 2 1 C1.01 1.495 1.01 1.495 0 2 C0 1.34 0 0.68 0 0 Z M-1 2 C-0.67 3.32 -0.34 4.64 0 6 C-2.475 7.485 -2.475 7.485 -5 9 C-3.79618552 6.50638429 -2.54571278 4.31856917 -1 2 Z " fill="#131313" transform="translate(544,548)"/>
<path d="M0 0 C0.33 0.66 0.66 1.32 1 2 C1.66 2 2.32 2 3 2 C2.34 4.31 1.68 6.62 1 9 C0.67 9 0.34 9 0 9 C0 6.03 0 3.06 0 0 Z " fill="#161515" transform="translate(676,588)"/>
<path d="M0 0 C0.33 0 0.66 0 1 0 C0.67 2.31 0.34 4.62 0 7 C-1.32 7.33 -2.64 7.66 -4 8 C-2.68 5.36 -1.36 2.72 0 0 Z " fill="#141313" transform="translate(1036,582)"/>
<path d="M0 0 C3 3.625 3 3.625 3 7 C2.01 7 1.02 7 0 7 C-1.125 2.25 -1.125 2.25 0 0 Z " fill="#101011" transform="translate(824,584)"/>
<path d="M0 0 C2.35953094 2.35953094 2.49141413 3.77895617 3 7 C2.01 7 1.02 7 0 7 C-0.38133299 5.0085944 -0.71325582 3.00720923 -1 1 C-0.67 0.67 -0.34 0.34 0 0 Z " fill="#0B0C0B" transform="translate(885,458)"/>
</svg>
