<?xml version="1.0" encoding="UTF-8"?>
<svg version="1.1" xmlns="http://www.w3.org/2000/svg" width="1536" height="1024">
<path d="M0 0 C506.88 0 1013.76 0 1536 0 C1536 337.92 1536 675.84 1536 1024 C1029.12 1024 522.24 1024 0 1024 C0 686.08 0 348.16 0 0 Z " fill="#FCFCFC" transform="translate(0,0)"/>
<path d="M0 0 C28.9575 -0.0928125 28.9575 -0.0928125 58.5 -0.1875 C64.56697266 -0.21481201 70.63394531 -0.24212402 76.88476562 -0.27026367 C84.36621094 -0.28381348 84.36621094 -0.28381348 87.88269043 -0.28633118 C90.3078375 -0.29089959 92.7329783 -0.30137007 95.15808105 -0.31672668 C108.76544288 -0.39849062 121.75490329 -0.39787867 135 3 C135.90255524 3.23152267 136.80511047 3.46304535 137.73501587 3.70158386 C139.83485576 4.27076912 141.88059651 4.91712916 143.9375 5.625 C144.67637451 5.87733398 145.41524902 6.12966797 146.17651367 6.38964844 C175.14709205 16.73430672 198.66230214 38.36980389 212.25024414 65.83422852 C215.61286814 72.96367504 218.08087881 80.35607425 220 88 C220.27928345 89.06359741 220.27928345 89.06359741 220.56420898 90.14868164 C222.22678865 97.25659781 222.33869105 104.33652675 222.31567383 111.60229492 C222.31253113 113.66705075 222.33599135 115.73034376 222.36132812 117.79492188 C222.50966774 148.52205281 209.54960885 176.35344735 188.3125 198.125 C175.02065727 211.26168503 159.35181332 220.71019145 141.75 226.8125 C140.96608887 227.09061523 140.18217773 227.36873047 139.37451172 227.65527344 C97.83065978 241.23580397 31.01913243 233 0 233 C0 156.11 0 79.22 0 0 Z " fill="#060606" transform="translate(344,366)"/>
<path d="M0 0 C105.57555178 0 105.57555178 0 131 25 C131.69996094 25.68707031 132.39992188 26.37414062 133.12109375 27.08203125 C148.93215481 43.69443263 153.59704598 64.35062319 153.08886719 86.63134766 C152.26723174 108.53109247 141.64935704 128.13492286 126.109375 143.1328125 C91.25957184 173.98134196 43.44066943 164 0 164 C0 109.88 0 55.76 0 0 Z " fill="#FBFBFB" transform="translate(379,400)"/>
<path d="M0 0 C80.14681284 0 80.14681284 0 100.6875 19.1875 C110.63719697 29.59425019 116.39218283 43.58966782 117 58 C117.0515625 59.07378906 117.103125 60.14757812 117.15625 61.25390625 C117.65859191 81.32665175 112.65631377 99.51331188 98.875 114.625 C72.72486786 139.31586137 32.05053333 132 0 132 C0 88.44 0 44.88 0 0 Z " fill="#060606" transform="translate(619,396)"/>
<path d="M0 0 C29.37 0 58.74 0 89 0 C89 7.59 89 15.18 89 23 C68.21 23 47.42 23 26 23 C26 33.23 26 43.46 26 54 C44.81 54 63.62 54 83 54 C83 61.59 83 69.18 83 77 C64.19 77 45.38 77 26 77 C26 87.23 26 97.46 26 108 C47.45 108 68.9 108 91 108 C91 115.92 91 123.84 91 132 C60.97 132 30.94 132 0 132 C0 88.44 0 44.88 0 0 Z " fill="#060606" transform="translate(1032,396)"/>
<path d="M0 0 C11.43277129 8.50662144 15.79736212 18.75943622 19.79296875 32.078125 C19.79296875 39.008125 19.79296875 45.938125 19.79296875 53.078125 C-15.35203125 53.573125 -15.35203125 53.573125 -51.20703125 54.078125 C-46.57664813 66.01179592 -46.57664813 66.01179592 -37.14453125 73.515625 C-30.69185074 76.03347838 -23.47999838 76.25423485 -16.80859375 74.41796875 C-11.7189544 72.16565708 -8.47897171 68.49028713 -5.20703125 64.078125 C-0.74996591 65.42125863 3.07919579 67.18409707 7.10546875 69.515625 C8.67748047 70.41087891 8.67748047 70.41087891 10.28125 71.32421875 C12.79296875 73.078125 12.79296875 73.078125 13.79296875 76.078125 C8.17781757 86.88552894 -2.29264504 93.0541636 -13.41796875 96.828125 C-27.64938896 100.63727836 -42.90158281 97.83273943 -55.64453125 90.828125 C-66.79622912 83.77785695 -74.08408973 74.33368061 -77.6640625 61.59765625 C-81.35798487 44.45679344 -79.58871751 27.71197588 -70.1171875 12.73046875 C-53.98877146 -9.66461201 -23.1759457 -14.57298567 0 0 Z " fill="#060706" transform="translate(826.20703125,431.921875)"/>
<path d="M0 0 C27.30051688 -2.52333252 27.30051688 -2.52333252 34.56445312 1.37695312 C38.43904895 4.87921542 40.76808816 9.17008707 42.95898438 13.86132812 C44.56266626 17.15594663 46.64294538 20.00425568 48.75 23 C49.83830454 24.66342482 50.92379709 26.32872019 52 28 C53.83766644 25.58653141 55.67009557 23.16934479 57.5 20.75 C58.0053125 20.08742188 58.510625 19.42484375 59.03125 18.7421875 C59.546875 18.05898438 60.0625 17.37578125 60.59375 16.671875 C61.42712891 15.5905127 61.42712891 15.5905127 62.27734375 14.48730469 C64.11173207 11.95757517 64.11173207 11.95757517 65.62890625 8.80175781 C67.49784306 5.32984827 69.12903306 2.71414942 72 0 C77.4170171 -1.46256474 82.45089996 -1.15041158 88 -0.75 C89.45681052 -0.68971819 90.91386159 -0.63498054 92.37109375 -0.5859375 C95.9191121 -0.45454086 99.45800449 -0.24809236 103 0 C101.0773777 3.99359844 98.64970792 7.55588956 96.125 11.1875 C95.64248779 11.88512451 95.15997559 12.58274902 94.6628418 13.30151367 C91.06849735 18.48756492 87.44554342 23.65350875 83.8125 28.8125 C83.31427734 29.5233374 82.81605469 30.2341748 82.30273438 30.96655273 C80.06403003 34.14606001 77.80460397 37.28757992 75.39453125 40.33984375 C74.64558594 41.30019531 73.89664062 42.26054687 73.125 43.25 C72.46757813 44.05953125 71.81015625 44.8690625 71.1328125 45.703125 C69.68746653 47.96569104 69.68746653 47.96569104 70.75195312 50.37695312 C71.94247291 52.87909408 73.23361985 55.00966922 74.8359375 57.265625 C75.39990234 58.06508545 75.96386719 58.8645459 76.54492188 59.68823242 C77.45081055 60.95630737 77.45081055 60.95630737 78.375 62.25 C78.99697266 63.12954346 79.61894531 64.00908691 80.25976562 64.9152832 C82.1687087 67.61338878 84.08406113 70.30685938 86 73 C104 98.3995498 104 98.3995498 104 101 C79.47749226 103.51910392 79.47749226 103.51910392 72.60986328 99.65527344 C68.82643935 96.13761488 66.47337385 91.8137182 64.17529297 87.23339844 C62.25201899 83.57861856 59.80817796 80.32686531 57.375 77 C56.95968018 76.39526855 56.54436035 75.79053711 56.11645508 75.16748047 C55.12845124 73.74173227 54.07055558 72.36485174 53 71 C52.34 71 51.68 71 51 71 C49.73019319 72.39817142 49.73019319 72.39817142 48.49609375 74.26171875 C48.00890869 74.96304932 47.52172363 75.66437988 47.01977539 76.38696289 C46.49762451 77.14614014 45.97547363 77.90531738 45.4375 78.6875 C44.88505615 79.45247803 44.3326123 80.21745605 43.76342773 81.00561523 C41.21139312 84.57460091 38.89769034 87.95504915 37.2265625 92.0234375 C33.89509203 99.10867751 33.89509203 99.10867751 30 101 C20.47622173 102.60029517 10.57620514 101.78417418 1 101 C1.7985582 96.0844656 3.8933444 92.80667873 6.75 88.8125 C7.4766687 87.776698 7.4766687 87.776698 8.21801758 86.7199707 C9.80111943 84.47202144 11.39836293 82.23477605 13 80 C13.54897949 79.23268555 14.09795898 78.46537109 14.66357422 77.67480469 C16.3346835 75.34313749 18.0099002 73.01450118 19.6875 70.6875 C20.23325684 69.93041748 20.77901367 69.17333496 21.34130859 68.39331055 C23.73528572 65.08449992 26.14232526 61.79256483 28.63671875 58.55859375 C29.74466797 57.10646484 29.74466797 57.10646484 30.875 55.625 C31.83019531 54.40683594 31.83019531 54.40683594 32.8046875 53.1640625 C34.2129443 51.12705091 34.2129443 51.12705091 33.72998047 49.09350586 C32.93670762 46.81848424 31.95433886 45.26870519 30.515625 43.33984375 C29.99887207 42.63786865 29.48211914 41.93589355 28.94970703 41.21264648 C28.38880371 40.46184814 27.82790039 39.7110498 27.25 38.9375 C21.85834977 31.61102188 16.64895646 24.18726015 11.57910156 16.63452148 C8.34272772 11.84646873 4.92653317 7.26571095 1.31591797 2.75219727 C0 1 0 1 0 0 Z " fill="#060606" transform="translate(1131,427)"/>
<path d="M0 0 C9.24 0 18.48 0 28 0 C36.45225406 22.95814954 44.75838653 45.96551468 53 69 C55.51214143 66.48785857 56.12627263 64.29587052 57.32250977 60.94555664 C57.54552765 60.32585495 57.76854553 59.70615326 57.99832153 59.06767273 C58.73476508 57.01706232 59.46310793 54.96367218 60.19140625 52.91015625 C60.70133243 51.485132 61.21175074 50.06028376 61.72264099 48.63560486 C63.06712565 44.88204571 64.4047205 41.12606634 65.7409668 37.36956787 C67.101026 33.55018616 68.46786812 29.73323403 69.83398438 25.91601562 C71.82836358 20.33983789 73.82049904 14.7628686 75.80688477 9.18383789 C76.20722427 8.05957901 76.60756378 6.93532013 77.02003479 5.7769928 C77.69743947 3.85738595 78.35627898 1.93116307 79 0 C88.24 0 97.48 0 107 0 C105.535625 3.856875 104.07125 7.71375 102.5625 11.6875 C98.97784131 21.13197602 95.40190904 30.57970123 91.8359375 40.03125 C78.4276095 75.56936442 78.4276095 75.56936442 73 89.75 C72.5970874 90.80791748 72.1941748 91.86583496 71.77905273 92.95581055 C71.41884033 93.89336182 71.05862793 94.83091309 70.6875 95.796875 C70.38199219 96.59448242 70.07648438 97.39208984 69.76171875 98.21386719 C69 100 69 100 68 101 C65.78144736 101.08783542 63.56011504 101.10694609 61.33984375 101.09765625 C60.34314415 101.09553383 60.34314415 101.09553383 59.3263092 101.09336853 C57.19666101 101.08775518 55.06711661 101.07520054 52.9375 101.0625 C51.49674631 101.05748671 50.05599097 101.05292351 48.61523438 101.04882812 C45.07678898 101.03778145 41.53840461 101.02050792 38 101 C36.65620574 97.48178774 35.31246731 93.96355415 33.96875 90.4453125 C33.54547424 89.33705612 33.12219849 88.22879974 32.68609619 87.08695984 C30.33475947 80.9301787 27.98386013 74.77323113 25.63378906 68.6159668 C25.15167238 67.35282897 24.66955569 66.08969115 24.18743896 64.82655334 C23.45889302 62.91777453 22.7303531 61.00899341 22.00183868 59.10020256 C19.0860032 51.46058212 16.16760859 43.82194927 13.24462891 36.18505859 C11.75776199 32.29953738 10.27262025 28.41335827 8.7878418 24.52703857 C8.09806775 22.72289246 7.40748021 20.91905714 6.71606445 19.11553955 C5.7617496 16.62599477 4.81023251 14.13539816 3.859375 11.64453125 C3.58119934 10.92101974 3.30302368 10.19750824 3.01641846 9.45207214 C1.81881296 6.30696465 0.81816302 3.27265207 0 0 Z " fill="#060706" transform="translate(848,427)"/>
<path d="M0 0 C39.96860987 0 39.96860987 0 52.921875 11.7421875 C61.7045939 20.78763731 64.2916423 32.40371473 64.31689453 44.62719727 C64.1270583 54.98499016 61.08451001 65.24077476 54 73 C37.82739352 87.49167415 21.85121058 85 0 85 C0 56.95 0 28.9 0 0 Z " fill="#FBFBFB" transform="translate(645,419)"/>
<path d="M0 0 C22.77 0 45.54 0 69 0 C69 9.9 69 19.8 69 30 C46.23 30 23.46 30 0 30 C0 20.1 0 10.2 0 0 Z " fill="#090909" transform="translate(418,501)"/>
<path d="M0 0 C22.77 0 45.54 0 69 0 C69 9.9 69 19.8 69 30 C46.23 30 23.46 30 0 30 C0 20.1 0 10.2 0 0 Z " fill="#090909" transform="translate(418,440)"/>
<path d="M0 0 C4.6739694 2.91637026 8.76392335 6.42971183 10.22265625 11.90234375 C11.15484577 18.74939954 11.38130075 25.00168348 7.66015625 31.02734375 C4.00254261 35.67934408 -0.75784118 39.14990593 -6.77734375 39.90234375 C-12.34272076 40.33044967 -16.96551615 39.75170049 -21.77734375 36.90234375 C-27.22633816 31.96619587 -30.69612574 27.13251133 -31.21484375 19.71484375 C-31.05639464 12.94680308 -28.00743569 7.0780432 -23.21484375 2.40234375 C-16.10535173 -1.97272827 -8.00841912 -3.16507141 0 0 Z " fill="#0A0A0A" transform="translate(696.77734375,574.09765625)"/>
<path d="M0 0 C18.48 0 36.96 0 56 0 C56 6.6 56 13.2 56 20 C37.52 20 19.04 20 0 20 C0 13.4 0 6.8 0 0 Z " fill="#050505" transform="translate(956,465)"/>
<path d="M0 0 C22.64705882 0 22.64705882 0 28.375 5.125 C30.64485562 9.1408984 30.92722529 12.49067361 30 17 C28.60457864 19.65295523 27.284748 20.92295636 25 23 C22.828125 23.65625 22.828125 23.65625 21 24 C21.6496875 25.07121094 22.299375 26.14242187 22.96875 27.24609375 C23.81261525 28.64315956 24.656359 30.04029876 25.5 31.4375 C25.92925781 32.14455078 26.35851563 32.85160156 26.80078125 33.58007812 C30 38.88671875 30 38.88671875 30 40 C26.72042538 40.88821813 24.24302754 41.10786655 21 40 C18.92870311 37.31172105 17.33483869 34.73635921 15.828125 31.7121582 C14.8364217 29.6976484 14.8364217 29.6976484 13 27 C11.35 26.67 9.7 26.34 8 26 C8 30.62 8 35.24 8 40 C5.36 40 2.72 40 0 40 C0 26.8 0 13.6 0 0 Z " fill="#060606" transform="translate(1013,573)"/>
<path d="M0 0 C2.97 0 5.94 0 9 0 C12.58655401 8.48608607 16.00370764 17.02704178 19.3125 25.625 C19.76689453 26.79417969 20.22128906 27.96335937 20.68945312 29.16796875 C21.11806641 30.28042969 21.54667969 31.39289062 21.98828125 32.5390625 C22.37540283 33.54146973 22.76252441 34.54387695 23.16137695 35.57666016 C24 38 24 38 24 40 C21.36 40 18.72 40 16 40 C14.515 35.545 14.515 35.545 13 31 C7.72 31 2.44 31 -3 31 C-3.99 33.97 -4.98 36.94 -6 40 C-8.97 40 -11.94 40 -15 40 C-14.68772461 39.17910889 -14.37544922 38.35821777 -14.05371094 37.51245117 C-12.87517949 34.41324496 -11.69736999 31.31376628 -10.52001953 28.21411133 C-10.01411545 26.88262439 -9.50793891 25.55124093 -9.00146484 24.2199707 C-5.93872201 16.1688992 -2.91329119 8.10668727 0 0 Z " fill="#090A09" transform="translate(1113,573)"/>
<path d="M0 0 C2.97 0 5.94 0 9 0 C11.14057344 5.37344658 13.27670522 10.7486288 15.40869141 16.12548828 C16.13500283 17.9554031 16.86253807 19.78483267 17.59130859 21.61376953 C18.63699259 24.23864976 19.67830159 26.86522836 20.71875 29.4921875 C21.04685669 30.31306854 21.37496338 31.13394958 21.7130127 31.97970581 C24 37.77225659 24 37.77225659 24 40 C21.03 40 18.06 40 15 40 C14.34 37.03 13.68 34.06 13 31 C7.72 31.33 2.44 31.66 -3 32 C-3.99 34.64 -4.98 37.28 -6 40 C-8.97 40 -11.94 40 -15 40 C-10.38370942 26.51319027 -5.25855613 13.24825948 0 0 Z " fill="#090909" transform="translate(809,573)"/>
<path d="M0 0 C5.53540868 3.33798747 9.60125629 7.77141473 11.44140625 14.05859375 C11.44140625 16.03859375 11.44140625 18.01859375 11.44140625 20.05859375 C-3.07859375 20.05859375 -17.59859375 20.05859375 -32.55859375 20.05859375 C-31.1389438 11.54069406 -27.79098714 6.6542688 -21.20703125 1.1875 C-15.67444268 -2.60140544 -6.07236805 -2.23426061 0 0 Z " fill="#F7F7F7" transform="translate(807.55859375,446.94140625)"/>
<path d="M0 0 C9.24 0 18.48 0 28 0 C28 2.31 28 4.62 28 7 C21.4 7 14.8 7 8 7 C8 9.97 8 12.94 8 16 C14.27 16 20.54 16 27 16 C27 18.31 27 20.62 27 23 C20.73 23 14.46 23 8 23 C8 26.3 8 29.6 8 33 C14.6 33 21.2 33 28 33 C28 35.31 28 37.62 28 40 C18.76 40 9.52 40 0 40 C0 26.8 0 13.6 0 0 Z " fill="#040404" transform="translate(1058,573)"/>
<path d="M0 0 C9.24 0 18.48 0 28 0 C28 2.31 28 4.62 28 7 C21.4 7 14.8 7 8 7 C8 9.97 8 12.94 8 16 C13.94 16 19.88 16 26 16 C26 18.31 26 20.62 26 23 C19.73 23 13.46 23 7 23 C7 26.3 7 29.6 7 33 C13.93 33 20.86 33 28 33 C28 35.31 28 37.62 28 40 C18.76 40 9.52 40 0 40 C0 26.8 0 13.6 0 0 Z " fill="#090909" transform="translate(1188,573)"/>
<path d="M0 0 C20 0 20 0 26 3 C27.375 5.1875 27.375 5.1875 28 7 C27.38125 6.505 26.7625 6.01 26.125 5.5 C24.16119096 3.80777227 24.16119096 3.80777227 22 4 C21.01 5.485 21.01 5.485 20 7 C17.1796875 7.29296875 17.1796875 7.29296875 13.875 7.1875 C12.23144531 7.14689453 12.23144531 7.14689453 10.5546875 7.10546875 C9.71164062 7.07066406 8.86859375 7.03585937 8 7 C8 10.3 8 13.6 8 17 C11.3 17 14.6 17 18 17 C18.144375 17.78375 18.28875 18.5675 18.4375 19.375 C18.87798925 21.96421018 18.87798925 21.96421018 20 24 C16.04 24 12.08 24 8 24 C8 26.97 8 29.94 8 33 C14.435 32.505 14.435 32.505 21 32 C21.66 30.35 22.32 28.7 23 27 C23.65213539 25.65949948 24.31379969 24.32338632 25 23 C26.98 23.99 28.96 24.98 31 26 C31.50338797 31.28557366 30.34676996 33.90950339 27 38 C23.82011883 40.04667148 21.31911757 40.23687908 17.578125 40.1953125 C16.65418945 40.19031738 15.73025391 40.18532227 14.77832031 40.18017578 C13.61397461 40.16196777 12.44962891 40.14375977 11.25 40.125 C7.5375 40.08375 3.825 40.0425 0 40 C0 26.8 0 13.6 0 0 Z " fill="#0B0B0B" transform="translate(847,573)"/>
<path d="M0 0 C3.85459998 2.1707249 6.48070939 3.7459863 8 8 C6.35 9.32 4.7 10.64 3 12 C1.7625 11.01 1.7625 11.01 0.5 10 C-3.26229238 7.51546729 -6.59985628 7.12347735 -11 8 C-14.10352458 9.60923497 -16.21701424 11.00347267 -18.375 13.75 C-19.66468814 18.39287732 -19.66450886 22.42616322 -17.8125 26.8125 C-15.61414247 29.46569012 -14.2336518 30.73465799 -11 32 C-5.74291501 32.06802143 -0.8946244 30.88254784 4 29 C5.32 30.65 6.64 32.3 8 34 C2.8454473 38.77739031 -1.26517002 40.58501889 -8.375 41.375 C-14.45893847 40.74562706 -19.8750304 38.72157234 -23.9375 34 C-28.51157744 27.34679645 -28.74051088 22.03021542 -28 14 C-26.78711049 8.9612174 -24.17360742 5.74153264 -20.1875 2.5 C-14.04862916 -1.23227031 -6.93364172 -1.17467638 0 0 Z " fill="#090A09" transform="translate(991,573)"/>
<path d="M0 0 C2.02949076 1.44200659 3.75679888 2.79959869 5.375 4.6875 C4.00516497 7.84865776 3.3859362 8.6802092 0.375 10.6875 C-0.5221875 9.9759375 -0.5221875 9.9759375 -1.4375 9.25 C-5.4104402 6.41218557 -8.85528649 6.35855424 -13.625 6.6875 C-17.77298495 8.47867532 -19.8664131 10.52242576 -21.625 14.6875 C-22.21576626 18.67719543 -22.01148044 21.77215159 -20.4375 25.5 C-17.37647536 29.19434008 -14.9791053 30.53977942 -10.1875 31.0625 C-6.56387149 30.89623987 -6.56387149 30.89623987 -3.4375 29.0625 C-0.625 27.6875 -0.625 27.6875 1.625 28.3125 C3.375 29.6875 3.375 29.6875 5.375 32.6875 C0.21409646 37.47077646 -3.90982396 39.34975672 -11.0625 40 C-17.26503161 39.45591828 -21.77103071 38.03536352 -26 33.3125 C-30.47638368 27.83580711 -31.07767434 22.59423006 -30.93359375 15.6953125 C-30.39932101 10.48784407 -28.80540435 6.66968578 -24.90625 3.125 C-17.64118 -2.29301831 -8.52586207 -3.08695006 0 0 Z " fill="#080808" transform="translate(651.625,574.3125)"/>
<path d="M0 0 C0.99 0.33 1.98 0.66 3 1 C3 54.79 3 108.58 3 164 C26.1 164 49.2 164 73 164 C72.67 164.66 72.34 165.32 72 166 C48.9 166 25.8 166 2 166 C0.13091133 161.32727832 -0.24807776 159.14188593 -0.24050903 154.2865448 C-0.24221788 153.62482075 -0.24392673 152.96309669 -0.24568737 152.28132039 C-0.24897241 150.07179425 -0.23799508 147.86257417 -0.22705078 145.65307617 C-0.22648645 144.06615201 -0.22680365 142.47922733 -0.22793579 140.89230347 C-0.22850946 136.58897196 -0.2167528 132.28575202 -0.20278788 127.98244643 C-0.19028295 123.483446 -0.1891102 118.98444299 -0.18673706 114.48542786 C-0.1805216 105.96802958 -0.16410987 97.45068266 -0.14403808 88.93330699 C-0.12168116 79.23568022 -0.11068617 69.538051 -0.10064721 59.84040487 C-0.07974371 39.89357458 -0.04456642 19.94679053 0 0 Z " fill="#2C2C2C" transform="translate(376,400)"/>
<path d="M0 0 C5.96244363 4.67326663 5.96244363 4.67326663 6.6640625 8.9609375 C6.87708992 14.79014222 5.62321718 18.11666329 1.8125 22.5625 C-1.61552796 25.41918997 -5.44988061 25.17162029 -9.6875 24.8125 C-13.70769207 22.68862495 -16.01893266 21.03344204 -17.6875 16.8125 C-18.3996481 11.79434011 -18.21662753 7.87075505 -15.9375 3.3125 C-11.45091682 -1.67259242 -6.35667753 -2.80876449 0 0 Z " fill="#F9F9FA" transform="translate(692.6875,581.1875)"/>
<path d="M0 0 C9.9 0 19.8 0 30 0 C30 2.31 30 4.62 30 7 C26.37 7 22.74 7 19 7 C19 17.89 19 28.78 19 40 C16.36 40 13.72 40 11 40 C11 29.11 11 18.22 11 7 C7.37 7 3.74 7 0 7 C0 4.69 0 2.38 0 0 Z " fill="#060706" transform="translate(1144,573)"/>
<path d="M0 0 C2.64 0 5.28 0 8 0 C8 10.89 8 21.78 8 33 C13.61 33 19.22 33 25 33 C25 35.31 25 37.62 25 40 C16.75 40 8.5 40 0 40 C0 26.8 0 13.6 0 0 Z " fill="#070707" transform="translate(721,573)"/>
<path d="M0 0 C0.598125 0.309375 1.19625 0.61875 1.8125 0.9375 C4.08956772 2.10209704 4.08956772 2.10209704 7 3 C8.348659 9.25287356 8.348659 9.25287356 6.6875 12.8125 C5 15 5 15 3 17 C4.65 18.65 6.3 20.3 8 22 C6.35 21.67 4.7 21.34 3 21 C2.896875 21.556875 2.79375 22.11375 2.6875 22.6875 C1.81483692 25.62282129 0.90992391 27.58076305 -1 30 C-4.13671875 30.48828125 -4.13671875 30.48828125 -7.6875 30.3125 C-9.45673828 30.24482422 -9.45673828 30.24482422 -11.26171875 30.17578125 C-12.16535156 30.11777344 -13.06898438 30.05976562 -14 30 C-14 27.03 -14 24.06 -14 21 C-10.37 20.67 -6.74 20.34 -3 20 C-6.63 19.67 -10.26 19.34 -14 19 C-14 18.67 -14 18.34 -14 18 C-10.7 18 -7.4 18 -4 18 C-4 17.34 -4 16.68 -4 16 C-7.3 15.34 -10.6 14.68 -14 14 C-14 10.7 -14 7.4 -14 4 C-13.15695312 3.96261719 -12.31390625 3.92523437 -11.4453125 3.88671875 C-9.80175781 3.78810547 -9.80175781 3.78810547 -8.125 3.6875 C-7.03445313 3.62949219 -5.94390625 3.57148437 -4.8203125 3.51171875 C-3.88960937 3.34285156 -2.95890625 3.17398438 -2 3 C-1.34 2.01 -0.68 1.02 0 0 Z " fill="#0E0E0E" transform="translate(869,576)"/>
<path d="M0 0 C2.64 0 5.28 0 8 0 C8 10.89 8 21.78 8 33 C13.28 33 18.56 33 24 33 C24 35.31 24 37.62 24 40 C16.08 40 8.16 40 0 40 C0 26.8 0 13.6 0 0 Z " fill="#0D0D0D" transform="translate(760,573)"/>
<path d="M0 0 C2.31 0 4.62 0 7 0 C7 16.17 7 32.34 7 49 C4.69 49 2.38 49 0 49 C0 32.83 0 16.66 0 0 Z " fill="#040403" transform="translate(917,570)"/>
<path d="M0 0 C10.46606289 -0.36939045 10.46606289 -0.36939045 12.86328125 1.2890625 C14 3 14 3 13.875 6.5625 C13 10 13 10 10 12 C6.64683663 12.26402861 3.36941342 12.08751723 0 12 C0 8.04 0 4.08 0 0 Z " fill="#F2F2F2" transform="translate(1021,580)"/>
<path d="M0 0 C1.93681161 -0.08107583 3.8745934 -0.13922475 5.8125 -0.1875 C6.89144531 -0.22230469 7.97039063 -0.25710938 9.08203125 -0.29296875 C12 0 12 0 13.90234375 1.34765625 C15 3 15 3 14.75 5.625 C14 8 14 8 13 9 C10.81360547 9.07258946 8.62499611 9.08373783 6.4375 9.0625 C4.64119141 9.04896484 4.64119141 9.04896484 2.80859375 9.03515625 C1.88175781 9.02355469 0.95492187 9.01195312 0 9 C0 6.03 0 3.06 0 0 Z " fill="#FAFAFA" transform="translate(855,597)"/>
<path d="M0 0 C1.79133978 -0.05391993 3.58313899 -0.09275571 5.375 -0.125 C6.37273438 -0.14820313 7.37046875 -0.17140625 8.3984375 -0.1953125 C11 0 11 0 13 2 C13.3125 5 13.3125 5 13 8 C8.61501596 10.92332269 5.2225328 10.1356502 0 10 C0 6.7 0 3.4 0 0 Z " fill="#FAFAFA" transform="translate(855,580)"/>
<path d="M0 0 C1.75 1.375 1.75 1.375 3.75 4.375 C-1.55027478 9.2874498 -5.77133718 11.26456626 -13.1875 11.5 C-14.198125 11.45875 -15.20875 11.4175 -16.25 11.375 C-16.25 10.385 -16.25 9.395 -16.25 8.375 C-13.61 8.375 -10.97 8.375 -8.25 8.375 C-8.25 6.395 -8.25 4.415 -8.25 2.375 C-2.87790698 -0.7994186 -2.87790698 -0.7994186 0 0 Z " fill="#0E0E0D" transform="translate(653.25,602.625)"/>
<path d="M0 0 C3.54610958 4.7281461 4.43796989 8.34693867 6 14 C2.37 14 -1.26 14 -5 14 C-3.35 9.38 -1.7 4.76 0 0 Z " fill="#F4F4F4" transform="translate(813,583)"/>
<path d="M0 0 C2.92586433 1.46293216 3.05946588 3.40270098 4.125 6.4375 C4.47820312 7.42621094 4.83140625 8.41492188 5.1953125 9.43359375 C6 12 6 12 6 14 C2.7 14 -0.6 14 -4 14 C-3.36843005 8.94744036 -1.86540627 4.70406799 0 0 Z " fill="#F7F7F7" transform="translate(1117,583)"/>
<path d="M0 0 C6.27 0 12.54 0 19 0 C19 2.31 19 4.62 19 7 C12.73 6.67 6.46 6.34 0 6 C0 5.67 0 5.34 0 5 C5.28 5 10.56 5 16 5 C16 4.34 16 3.68 16 3 C10.72 3 5.44 3 0 3 C0 2.01 0 1.02 0 0 Z " fill="#2D2D2D" transform="translate(1066,589)"/>
<path d="M0 0 C0.66 0.33 1.32 0.66 2 1 C1.01 2.98 0.02 4.96 -1 7 C-1.66 7 -2.32 7 -3 7 C-3.33 7.99 -3.66 8.98 -4 10 C-4.66 9.67 -5.32 9.34 -6 9 C-4.02 6.03 -2.04 3.06 0 0 Z M-8 11 C-8 11.99 -8 12.98 -8 14 C-8.66 13.67 -9.32 13.34 -10 13 C-9.34 12.34 -8.68 11.68 -8 11 Z M-14 17 C-14 17.99 -14 18.98 -14 20 C-14.66 19.67 -15.32 19.34 -16 19 C-15.34 18.34 -14.68 17.68 -14 17 Z M-18 20 C-17.34 20.33 -16.68 20.66 -16 21 C-17.98 21.99 -17.98 21.99 -20 23 C-19.34 22.01 -18.68 21.02 -18 20 Z M-22 23 C-21.34 23.33 -20.68 23.66 -20 24 C-20.99 24.66 -21.98 25.32 -23 26 C-22.67 25.01 -22.34 24.02 -22 23 Z " fill="#0C0C0C" transform="translate(519,525)"/>
<path d="M0 0 C1.9375 1.5625 1.9375 1.5625 3 3 C2.67 3.66 2.34 4.32 2 5 C1.54625 4.505 1.0925 4.01 0.625 3.5 C-0.87635519 1.77390663 -0.87635519 1.77390663 -3 2 C-3.33 2.66 -3.66 3.32 -4 4 C-6.46800047 2.84826645 -8.04783565 1.95216435 -10 0 C-6.22941703 -1.25686099 -3.86146303 -0.82745636 0 0 Z " fill="#050505" transform="translate(872,575)"/>
<path d="M0 0 C0.33 0.99 0.66 1.98 1 3 C0.01 3.33 -0.98 3.66 -2 4 C-2 3.34 -2 2.68 -2 2 C-9.92 2 -17.84 2 -26 2 C-26 1.67 -26 1.34 -26 1 C-22.04169483 0.83265991 -18.08335144 0.66624177 -14.125 0.5 C-12.43310547 0.42845703 -12.43310547 0.42845703 -10.70703125 0.35546875 C-9.63066406 0.31035156 -8.55429687 0.26523437 -7.4453125 0.21875 C-5.95281982 0.1559082 -5.95281982 0.1559082 -4.43017578 0.09179688 C-2.95418617 0.0360432 -1.47704224 0 0 0 Z " fill="#0D0D0E" transform="translate(876,427)"/>
<path d="M0 0 C2.12508244 3.18762365 2.5020163 5.26512223 3 9 C1.68 8.01 0.36 7.02 -1 6 C-0.67 4.02 -0.34 2.04 0 0 Z " fill="#121212" transform="translate(896,484)"/>
</svg>
